<?xml version="1.0" encoding="UTF-8" standalone="no"?>
<!DOCTYPE svg PUBLIC "-//W3C//DTD SVG 1.1//EN"
 "http://www.w3.org/Graphics/SVG/1.1/DTD/svg11.dtd">
<!-- Generated by graphviz version 2.38.0 (20140413.2041)
 -->
<!-- Title: G Pages: 1 -->
<svg width="771pt" height="1067pt"
 viewBox="0.00 0.00 771.00 1067.00" xmlns="http://www.w3.org/2000/svg" xmlns:xlink="http://www.w3.org/1999/xlink">
<g id="graph0" class="graph" transform="scale(1 1) rotate(0) translate(4 1063)">
<title>G</title>
<polygon fill="white" stroke="none" points="-4,4 -4,-1063 767,-1063 767,4 -4,4"/>
<!-- 140323825930760 -->
<g id="node1" class="node"><title>140323825930760</title>
<polygon fill="none" stroke="black" points="67.5,-1022.5 67.5,-1058.5 192.5,-1058.5 192.5,-1022.5 67.5,-1022.5"/>
<text text-anchor="middle" x="130" y="-1036.8" font-family="Times,serif" font-size="14.00">input_1: InputLayer</text>
</g>
<!-- 140323825931656 -->
<g id="node3" class="node"><title>140323825931656</title>
<polygon fill="none" stroke="black" points="56,-949.5 56,-985.5 204,-985.5 204,-949.5 56,-949.5"/>
<text text-anchor="middle" x="130" y="-963.8" font-family="Times,serif" font-size="14.00">left_3x3conv1: Conv2D</text>
</g>
<!-- 140323825930760&#45;&gt;140323825931656 -->
<g id="edge1" class="edge"><title>140323825930760&#45;&gt;140323825931656</title>
<path fill="none" stroke="black" d="M130,-1022.31C130,-1014.29 130,-1004.55 130,-995.569"/>
<polygon fill="black" stroke="black" points="133.5,-995.529 130,-985.529 126.5,-995.529 133.5,-995.529"/>
</g>
<!-- 140323825930872 -->
<g id="node2" class="node"><title>140323825930872</title>
<polygon fill="none" stroke="black" points="336.5,-1022.5 336.5,-1058.5 461.5,-1058.5 461.5,-1022.5 336.5,-1022.5"/>
<text text-anchor="middle" x="399" y="-1036.8" font-family="Times,serif" font-size="14.00">input_2: InputLayer</text>
</g>
<!-- 140323825932048 -->
<g id="node4" class="node"><title>140323825932048</title>
<polygon fill="none" stroke="black" points="321.5,-949.5 321.5,-985.5 476.5,-985.5 476.5,-949.5 321.5,-949.5"/>
<text text-anchor="middle" x="399" y="-963.8" font-family="Times,serif" font-size="14.00">right_3x3conv1: Conv2D</text>
</g>
<!-- 140323825930872&#45;&gt;140323825932048 -->
<g id="edge2" class="edge"><title>140323825930872&#45;&gt;140323825932048</title>
<path fill="none" stroke="black" d="M399,-1022.31C399,-1014.29 399,-1004.55 399,-995.569"/>
<polygon fill="black" stroke="black" points="402.5,-995.529 399,-985.529 395.5,-995.529 402.5,-995.529"/>
</g>
<!-- 140323825931096 -->
<g id="node5" class="node"><title>140323825931096</title>
<polygon fill="none" stroke="black" points="48,-876.5 48,-912.5 212,-912.5 212,-876.5 48,-876.5"/>
<text text-anchor="middle" x="130" y="-890.8" font-family="Times,serif" font-size="14.00">left_max1: MaxPooling2D</text>
</g>
<!-- 140323825931656&#45;&gt;140323825931096 -->
<g id="edge3" class="edge"><title>140323825931656&#45;&gt;140323825931096</title>
<path fill="none" stroke="black" d="M130,-949.313C130,-941.289 130,-931.547 130,-922.569"/>
<polygon fill="black" stroke="black" points="133.5,-922.529 130,-912.529 126.5,-922.529 133.5,-922.529"/>
</g>
<!-- 140323825932160 -->
<g id="node6" class="node"><title>140323825932160</title>
<polygon fill="none" stroke="black" points="313.5,-876.5 313.5,-912.5 484.5,-912.5 484.5,-876.5 313.5,-876.5"/>
<text text-anchor="middle" x="399" y="-890.8" font-family="Times,serif" font-size="14.00">right_max1: MaxPooling2D</text>
</g>
<!-- 140323825932048&#45;&gt;140323825932160 -->
<g id="edge4" class="edge"><title>140323825932048&#45;&gt;140323825932160</title>
<path fill="none" stroke="black" d="M399,-949.313C399,-941.289 399,-931.547 399,-922.569"/>
<polygon fill="black" stroke="black" points="402.5,-922.529 399,-912.529 395.5,-922.529 402.5,-922.529"/>
</g>
<!-- 140323825932608 -->
<g id="node7" class="node"><title>140323825932608</title>
<polygon fill="none" stroke="black" points="56,-803.5 56,-839.5 204,-839.5 204,-803.5 56,-803.5"/>
<text text-anchor="middle" x="130" y="-817.8" font-family="Times,serif" font-size="14.00">left_3x3conv2: Conv2D</text>
</g>
<!-- 140323825931096&#45;&gt;140323825932608 -->
<g id="edge5" class="edge"><title>140323825931096&#45;&gt;140323825932608</title>
<path fill="none" stroke="black" d="M130,-876.313C130,-868.289 130,-858.547 130,-849.569"/>
<polygon fill="black" stroke="black" points="133.5,-849.529 130,-839.529 126.5,-849.529 133.5,-849.529"/>
</g>
<!-- 140323825932776 -->
<g id="node8" class="node"><title>140323825932776</title>
<polygon fill="none" stroke="black" points="321.5,-803.5 321.5,-839.5 476.5,-839.5 476.5,-803.5 321.5,-803.5"/>
<text text-anchor="middle" x="399" y="-817.8" font-family="Times,serif" font-size="14.00">right_3x3conv2: Conv2D</text>
</g>
<!-- 140323825932160&#45;&gt;140323825932776 -->
<g id="edge6" class="edge"><title>140323825932160&#45;&gt;140323825932776</title>
<path fill="none" stroke="black" d="M399,-876.313C399,-868.289 399,-858.547 399,-849.569"/>
<polygon fill="black" stroke="black" points="402.5,-849.529 399,-839.529 395.5,-849.529 402.5,-849.529"/>
</g>
<!-- 140323825933112 -->
<g id="node9" class="node"><title>140323825933112</title>
<polygon fill="none" stroke="black" points="48,-730.5 48,-766.5 212,-766.5 212,-730.5 48,-730.5"/>
<text text-anchor="middle" x="130" y="-744.8" font-family="Times,serif" font-size="14.00">left_max2: MaxPooling2D</text>
</g>
<!-- 140323825932608&#45;&gt;140323825933112 -->
<g id="edge7" class="edge"><title>140323825932608&#45;&gt;140323825933112</title>
<path fill="none" stroke="black" d="M130,-803.313C130,-795.289 130,-785.547 130,-776.569"/>
<polygon fill="black" stroke="black" points="133.5,-776.529 130,-766.529 126.5,-776.529 133.5,-776.529"/>
</g>
<!-- 140323825933504 -->
<g id="node10" class="node"><title>140323825933504</title>
<polygon fill="none" stroke="black" points="313.5,-730.5 313.5,-766.5 484.5,-766.5 484.5,-730.5 313.5,-730.5"/>
<text text-anchor="middle" x="399" y="-744.8" font-family="Times,serif" font-size="14.00">right_max2: MaxPooling2D</text>
</g>
<!-- 140323825932776&#45;&gt;140323825933504 -->
<g id="edge8" class="edge"><title>140323825932776&#45;&gt;140323825933504</title>
<path fill="none" stroke="black" d="M399,-803.313C399,-795.289 399,-785.547 399,-776.569"/>
<polygon fill="black" stroke="black" points="402.5,-776.529 399,-766.529 395.5,-776.529 402.5,-776.529"/>
</g>
<!-- 140323825933896 -->
<g id="node12" class="node"><title>140323825933896</title>
<polygon fill="none" stroke="black" points="56,-657.5 56,-693.5 204,-693.5 204,-657.5 56,-657.5"/>
<text text-anchor="middle" x="130" y="-671.8" font-family="Times,serif" font-size="14.00">left_2x2conv1: Conv2D</text>
</g>
<!-- 140323825933112&#45;&gt;140323825933896 -->
<g id="edge9" class="edge"><title>140323825933112&#45;&gt;140323825933896</title>
<path fill="none" stroke="black" d="M130,-730.313C130,-722.289 130,-712.547 130,-703.569"/>
<polygon fill="black" stroke="black" points="133.5,-703.529 130,-693.529 126.5,-703.529 133.5,-703.529"/>
</g>
<!-- 140323825934064 -->
<g id="node13" class="node"><title>140323825934064</title>
<polygon fill="none" stroke="black" points="321.5,-657.5 321.5,-693.5 476.5,-693.5 476.5,-657.5 321.5,-657.5"/>
<text text-anchor="middle" x="399" y="-671.8" font-family="Times,serif" font-size="14.00">right_2x2conv1: Conv2D</text>
</g>
<!-- 140323825933504&#45;&gt;140323825934064 -->
<g id="edge10" class="edge"><title>140323825933504&#45;&gt;140323825934064</title>
<path fill="none" stroke="black" d="M399,-730.313C399,-722.289 399,-712.547 399,-703.569"/>
<polygon fill="black" stroke="black" points="402.5,-703.529 399,-693.529 395.5,-703.529 402.5,-703.529"/>
</g>
<!-- 140323825933728 -->
<g id="node11" class="node"><title>140323825933728</title>
<polygon fill="none" stroke="black" points="570.5,-730.5 570.5,-766.5 695.5,-766.5 695.5,-730.5 570.5,-730.5"/>
<text text-anchor="middle" x="633" y="-744.8" font-family="Times,serif" font-size="14.00">input_3: InputLayer</text>
</g>
<!-- 140323803644648 -->
<g id="node14" class="node"><title>140323803644648</title>
<polygon fill="none" stroke="black" points="582,-657.5 582,-693.5 684,-693.5 684,-657.5 582,-657.5"/>
<text text-anchor="middle" x="633" y="-671.8" font-family="Times,serif" font-size="14.00">dense_1: Dense</text>
</g>
<!-- 140323825933728&#45;&gt;140323803644648 -->
<g id="edge11" class="edge"><title>140323825933728&#45;&gt;140323803644648</title>
<path fill="none" stroke="black" d="M633,-730.313C633,-722.289 633,-712.547 633,-703.569"/>
<polygon fill="black" stroke="black" points="636.5,-703.529 633,-693.529 629.5,-703.529 636.5,-703.529"/>
</g>
<!-- 140323803645040 -->
<g id="node15" class="node"><title>140323803645040</title>
<polygon fill="none" stroke="black" points="48,-584.5 48,-620.5 212,-620.5 212,-584.5 48,-584.5"/>
<text text-anchor="middle" x="130" y="-598.8" font-family="Times,serif" font-size="14.00">left_max3: MaxPooling2D</text>
</g>
<!-- 140323825933896&#45;&gt;140323803645040 -->
<g id="edge12" class="edge"><title>140323825933896&#45;&gt;140323803645040</title>
<path fill="none" stroke="black" d="M130,-657.313C130,-649.289 130,-639.547 130,-630.569"/>
<polygon fill="black" stroke="black" points="133.5,-630.529 130,-620.529 126.5,-630.529 133.5,-630.529"/>
</g>
<!-- 140323803645208 -->
<g id="node16" class="node"><title>140323803645208</title>
<polygon fill="none" stroke="black" points="313.5,-584.5 313.5,-620.5 484.5,-620.5 484.5,-584.5 313.5,-584.5"/>
<text text-anchor="middle" x="399" y="-598.8" font-family="Times,serif" font-size="14.00">right_max3: MaxPooling2D</text>
</g>
<!-- 140323825934064&#45;&gt;140323803645208 -->
<g id="edge13" class="edge"><title>140323825934064&#45;&gt;140323803645208</title>
<path fill="none" stroke="black" d="M399,-657.313C399,-649.289 399,-639.547 399,-630.569"/>
<polygon fill="black" stroke="black" points="402.5,-630.529 399,-620.529 395.5,-630.529 402.5,-630.529"/>
</g>
<!-- 140323803645376 -->
<g id="node17" class="node"><title>140323803645376</title>
<polygon fill="none" stroke="black" points="503,-584.5 503,-620.5 763,-620.5 763,-584.5 503,-584.5"/>
<text text-anchor="middle" x="633" y="-598.8" font-family="Times,serif" font-size="14.00">batch_normalization_3: BatchNormalization</text>
</g>
<!-- 140323803644648&#45;&gt;140323803645376 -->
<g id="edge14" class="edge"><title>140323803644648&#45;&gt;140323803645376</title>
<path fill="none" stroke="black" d="M633,-657.313C633,-649.289 633,-639.547 633,-630.569"/>
<polygon fill="black" stroke="black" points="636.5,-630.529 633,-620.529 629.5,-630.529 636.5,-630.529"/>
</g>
<!-- 140323803645656 -->
<g id="node18" class="node"><title>140323803645656</title>
<polygon fill="none" stroke="black" points="0,-511.5 0,-547.5 260,-547.5 260,-511.5 0,-511.5"/>
<text text-anchor="middle" x="130" y="-525.8" font-family="Times,serif" font-size="14.00">batch_normalization_1: BatchNormalization</text>
</g>
<!-- 140323803645040&#45;&gt;140323803645656 -->
<g id="edge15" class="edge"><title>140323803645040&#45;&gt;140323803645656</title>
<path fill="none" stroke="black" d="M130,-584.313C130,-576.289 130,-566.547 130,-557.569"/>
<polygon fill="black" stroke="black" points="133.5,-557.529 130,-547.529 126.5,-557.529 133.5,-557.529"/>
</g>
<!-- 140323803645936 -->
<g id="node19" class="node"><title>140323803645936</title>
<polygon fill="none" stroke="black" points="278,-511.5 278,-547.5 538,-547.5 538,-511.5 278,-511.5"/>
<text text-anchor="middle" x="408" y="-525.8" font-family="Times,serif" font-size="14.00">batch_normalization_2: BatchNormalization</text>
</g>
<!-- 140323803645208&#45;&gt;140323803645936 -->
<g id="edge16" class="edge"><title>140323803645208&#45;&gt;140323803645936</title>
<path fill="none" stroke="black" d="M401.179,-584.313C402.196,-576.289 403.431,-566.547 404.569,-557.569"/>
<polygon fill="black" stroke="black" points="408.056,-557.89 405.841,-547.529 401.112,-557.009 408.056,-557.89"/>
</g>
<!-- 140323803646216 -->
<g id="node20" class="node"><title>140323803646216</title>
<polygon fill="none" stroke="black" points="565,-511.5 565,-547.5 667,-547.5 667,-511.5 565,-511.5"/>
<text text-anchor="middle" x="616" y="-525.8" font-family="Times,serif" font-size="14.00">dense_2: Dense</text>
</g>
<!-- 140323803645376&#45;&gt;140323803646216 -->
<g id="edge17" class="edge"><title>140323803645376&#45;&gt;140323803646216</title>
<path fill="none" stroke="black" d="M628.885,-584.313C626.943,-576.202 624.58,-566.336 622.411,-557.277"/>
<polygon fill="black" stroke="black" points="625.81,-556.439 620.077,-547.529 619.002,-558.069 625.81,-556.439"/>
</g>
<!-- 140323803646552 -->
<g id="node21" class="node"><title>140323803646552</title>
<polygon fill="none" stroke="black" points="149.5,-438.5 149.5,-474.5 258.5,-474.5 258.5,-438.5 149.5,-438.5"/>
<text text-anchor="middle" x="204" y="-452.8" font-family="Times,serif" font-size="14.00">left_flttn: Flatten</text>
</g>
<!-- 140323803645656&#45;&gt;140323803646552 -->
<g id="edge18" class="edge"><title>140323803645656&#45;&gt;140323803646552</title>
<path fill="none" stroke="black" d="M147.913,-511.313C157.185,-502.417 168.658,-491.409 178.807,-481.672"/>
<polygon fill="black" stroke="black" points="181.459,-483.978 186.252,-474.529 176.613,-478.927 181.459,-483.978"/>
</g>
<!-- 140323803646664 -->
<g id="node22" class="node"><title>140323803646664</title>
<polygon fill="none" stroke="black" points="350,-438.5 350,-474.5 466,-474.5 466,-438.5 350,-438.5"/>
<text text-anchor="middle" x="408" y="-452.8" font-family="Times,serif" font-size="14.00">right_flttn: Flatten</text>
</g>
<!-- 140323803645936&#45;&gt;140323803646664 -->
<g id="edge19" class="edge"><title>140323803645936&#45;&gt;140323803646664</title>
<path fill="none" stroke="black" d="M408,-511.313C408,-503.289 408,-493.547 408,-484.569"/>
<polygon fill="black" stroke="black" points="411.5,-484.529 408,-474.529 404.5,-484.529 411.5,-484.529"/>
</g>
<!-- 140323803646776 -->
<g id="node23" class="node"><title>140323803646776</title>
<polygon fill="none" stroke="black" points="522,-438.5 522,-474.5 632,-474.5 632,-438.5 522,-438.5"/>
<text text-anchor="middle" x="577" y="-452.8" font-family="Times,serif" font-size="14.00">flatten_1: Flatten</text>
</g>
<!-- 140323803646216&#45;&gt;140323803646776 -->
<g id="edge20" class="edge"><title>140323803646216&#45;&gt;140323803646776</title>
<path fill="none" stroke="black" d="M606.559,-511.313C601.96,-502.941 596.334,-492.697 591.228,-483.403"/>
<polygon fill="black" stroke="black" points="594.236,-481.609 586.354,-474.529 588.101,-484.979 594.236,-481.609"/>
</g>
<!-- 140323803646888 -->
<g id="node24" class="node"><title>140323803646888</title>
<polygon fill="none" stroke="black" points="324,-365.5 324,-401.5 492,-401.5 492,-365.5 324,-365.5"/>
<text text-anchor="middle" x="408" y="-379.8" font-family="Times,serif" font-size="14.00">concatenate_1: Concatenate</text>
</g>
<!-- 140323803646552&#45;&gt;140323803646888 -->
<g id="edge21" class="edge"><title>140323803646552&#45;&gt;140323803646888</title>
<path fill="none" stroke="black" d="M252.863,-438.494C281.794,-428.425 318.637,-415.602 349.159,-404.979"/>
<polygon fill="black" stroke="black" points="350.535,-408.206 358.829,-401.614 348.234,-401.595 350.535,-408.206"/>
</g>
<!-- 140323803646664&#45;&gt;140323803646888 -->
<g id="edge22" class="edge"><title>140323803646664&#45;&gt;140323803646888</title>
<path fill="none" stroke="black" d="M408,-438.313C408,-430.289 408,-420.547 408,-411.569"/>
<polygon fill="black" stroke="black" points="411.5,-411.529 408,-401.529 404.5,-411.529 411.5,-411.529"/>
</g>
<!-- 140323803646776&#45;&gt;140323803646888 -->
<g id="edge23" class="edge"><title>140323803646776&#45;&gt;140323803646888</title>
<path fill="none" stroke="black" d="M536.52,-438.494C512.968,-428.599 483.086,-416.045 458.064,-405.533"/>
<polygon fill="black" stroke="black" points="459.31,-402.26 448.735,-401.614 456.599,-408.714 459.31,-402.26"/>
</g>
<!-- 140323803646944 -->
<g id="node25" class="node"><title>140323803646944</title>
<polygon fill="none" stroke="black" points="297,-292.5 297,-328.5 399,-328.5 399,-292.5 297,-292.5"/>
<text text-anchor="middle" x="348" y="-306.8" font-family="Times,serif" font-size="14.00">dense_3: Dense</text>
</g>
<!-- 140323803646888&#45;&gt;140323803646944 -->
<g id="edge24" class="edge"><title>140323803646888&#45;&gt;140323803646944</title>
<path fill="none" stroke="black" d="M393.476,-365.313C386.106,-356.592 377.02,-345.84 368.912,-336.246"/>
<polygon fill="black" stroke="black" points="371.518,-333.908 362.391,-328.529 366.172,-338.426 371.518,-333.908"/>
</g>
<!-- 140323803647280 -->
<g id="node26" class="node"><title>140323803647280</title>
<polygon fill="none" stroke="black" points="456,-292.5 456,-328.5 558,-328.5 558,-292.5 456,-292.5"/>
<text text-anchor="middle" x="507" y="-306.8" font-family="Times,serif" font-size="14.00">dense_5: Dense</text>
</g>
<!-- 140323803646888&#45;&gt;140323803647280 -->
<g id="edge25" class="edge"><title>140323803646888&#45;&gt;140323803647280</title>
<path fill="none" stroke="black" d="M431.713,-365.494C444.598,-356.253 460.718,-344.692 474.732,-334.642"/>
<polygon fill="black" stroke="black" points="477.051,-337.286 483.137,-328.614 472.971,-331.597 477.051,-337.286"/>
</g>
<!-- 140323803647616 -->
<g id="node27" class="node"><title>140323803647616</title>
<polygon fill="none" stroke="black" points="277,-219.5 277,-255.5 379,-255.5 379,-219.5 277,-219.5"/>
<text text-anchor="middle" x="328" y="-233.8" font-family="Times,serif" font-size="14.00">dense_4: Dense</text>
</g>
<!-- 140323803646944&#45;&gt;140323803647616 -->
<g id="edge26" class="edge"><title>140323803646944&#45;&gt;140323803647616</title>
<path fill="none" stroke="black" d="M343.159,-292.313C340.874,-284.202 338.095,-274.336 335.543,-265.277"/>
<polygon fill="black" stroke="black" points="338.877,-264.205 332.797,-255.529 332.139,-266.103 338.877,-264.205"/>
</g>
<!-- 140323825934008 -->
<g id="node28" class="node"><title>140323825934008</title>
<polygon fill="none" stroke="black" points="397,-219.5 397,-255.5 657,-255.5 657,-219.5 397,-219.5"/>
<text text-anchor="middle" x="527" y="-233.8" font-family="Times,serif" font-size="14.00">batch_normalization_5: BatchNormalization</text>
</g>
<!-- 140323803647280&#45;&gt;140323825934008 -->
<g id="edge27" class="edge"><title>140323803647280&#45;&gt;140323825934008</title>
<path fill="none" stroke="black" d="M511.841,-292.313C514.126,-284.202 516.905,-274.336 519.457,-265.277"/>
<polygon fill="black" stroke="black" points="522.861,-266.103 522.203,-255.529 516.123,-264.205 522.861,-266.103"/>
</g>
<!-- 140323788550440 -->
<g id="node29" class="node"><title>140323788550440</title>
<polygon fill="none" stroke="black" points="198,-146.5 198,-182.5 458,-182.5 458,-146.5 198,-146.5"/>
<text text-anchor="middle" x="328" y="-160.8" font-family="Times,serif" font-size="14.00">batch_normalization_4: BatchNormalization</text>
</g>
<!-- 140323803647616&#45;&gt;140323788550440 -->
<g id="edge28" class="edge"><title>140323803647616&#45;&gt;140323788550440</title>
<path fill="none" stroke="black" d="M328,-219.313C328,-211.289 328,-201.547 328,-192.569"/>
<polygon fill="black" stroke="black" points="331.5,-192.529 328,-182.529 324.5,-192.529 331.5,-192.529"/>
</g>
<!-- 140323788550720 -->
<g id="node30" class="node"><title>140323788550720</title>
<polygon fill="none" stroke="black" points="476,-146.5 476,-182.5 578,-182.5 578,-146.5 476,-146.5"/>
<text text-anchor="middle" x="527" y="-160.8" font-family="Times,serif" font-size="14.00">dense_6: Dense</text>
</g>
<!-- 140323825934008&#45;&gt;140323788550720 -->
<g id="edge29" class="edge"><title>140323825934008&#45;&gt;140323788550720</title>
<path fill="none" stroke="black" d="M527,-219.313C527,-211.289 527,-201.547 527,-192.569"/>
<polygon fill="black" stroke="black" points="530.5,-192.529 527,-182.529 523.5,-192.529 530.5,-192.529"/>
</g>
<!-- 140323788551056 -->
<g id="node31" class="node"><title>140323788551056</title>
<polygon fill="none" stroke="black" points="285,-73.5 285,-109.5 415,-109.5 415,-73.5 285,-73.5"/>
<text text-anchor="middle" x="350" y="-87.8" font-family="Times,serif" font-size="14.00">coord_output: Dense</text>
</g>
<!-- 140323788550440&#45;&gt;140323788551056 -->
<g id="edge30" class="edge"><title>140323788550440&#45;&gt;140323788551056</title>
<path fill="none" stroke="black" d="M333.326,-146.313C335.839,-138.202 338.896,-128.336 341.703,-119.277"/>
<polygon fill="black" stroke="black" points="345.107,-120.117 344.723,-109.529 338.42,-118.045 345.107,-120.117"/>
</g>
<!-- 140323788551392 -->
<g id="node32" class="node"><title>140323788551392</title>
<polygon fill="none" stroke="black" points="444,-73.5 444,-109.5 588,-109.5 588,-73.5 444,-73.5"/>
<text text-anchor="middle" x="516" y="-87.8" font-family="Times,serif" font-size="14.00">gaze_likelihood: Dense</text>
</g>
<!-- 140323788550720&#45;&gt;140323788551392 -->
<g id="edge31" class="edge"><title>140323788550720&#45;&gt;140323788551392</title>
<path fill="none" stroke="black" d="M524.337,-146.313C523.094,-138.289 521.585,-128.547 520.194,-119.569"/>
<polygon fill="black" stroke="black" points="523.628,-118.875 518.638,-109.529 516.711,-119.947 523.628,-118.875"/>
</g>
<!-- 140323788551728 -->
<g id="node33" class="node"><title>140323788551728</title>
<polygon fill="none" stroke="black" points="349,-0.5 349,-36.5 517,-36.5 517,-0.5 349,-0.5"/>
<text text-anchor="middle" x="433" y="-14.8" font-family="Times,serif" font-size="14.00">concatenate_2: Concatenate</text>
</g>
<!-- 140323788551056&#45;&gt;140323788551728 -->
<g id="edge32" class="edge"><title>140323788551056&#45;&gt;140323788551728</title>
<path fill="none" stroke="black" d="M370.092,-73.3129C380.695,-64.243 393.865,-52.9769 405.411,-43.1004"/>
<polygon fill="black" stroke="black" points="407.769,-45.6889 413.093,-36.5288 403.219,-40.3696 407.769,-45.6889"/>
</g>
<!-- 140323788551392&#45;&gt;140323788551728 -->
<g id="edge33" class="edge"><title>140323788551392&#45;&gt;140323788551728</title>
<path fill="none" stroke="black" d="M495.908,-73.3129C485.305,-64.243 472.135,-52.9769 460.589,-43.1004"/>
<polygon fill="black" stroke="black" points="462.781,-40.3696 452.907,-36.5288 458.231,-45.6889 462.781,-40.3696"/>
</g>
</g>
</svg>
